<?xml version="1.0" standalone="no"?><!DOCTYPE svg PUBLIC "-//W3C//DTD SVG 1.1//EN" "http://www.w3.org/Graphics/SVG/1.1/DTD/svg11.dtd"><svg class="icon" width="16px" height="16.00px" viewBox="0 0 1024 1024" version="1.1" xmlns="http://www.w3.org/2000/svg"><path fill="#ffffff" d="M951.582 1023.987H85.369c-38.434 0-69.702-31.268-69.702-69.701V69.705C15.667 31.271 46.935 0.003 85.369 0.003h866.213c38.435 0 69.701 31.268 69.701 69.702v884.582c0 38.433-31.266 69.7-69.701 69.7zM85.369 42.731c-14.874 0-26.974 12.1-26.974 26.974v884.582c0 14.872 12.101 26.974 26.974 26.974h866.213c14.873 0 26.974-12.102 26.974-26.974V69.705c0-14.874-12.101-26.974-26.974-26.974H85.369z"  /><path fill="#ffffff" d="M367.856 741.925a21.366 21.366 0 0 1-21.362-21.364V303.429a21.364 21.364 0 0 1 33.525-17.564L681.253 494.43a21.368 21.368 0 0 1 0 35.132L380.02 738.126a21.361 21.361 0 0 1-12.164 3.799z m21.366-397.719v335.577l242.339-167.789-242.339-167.788z"  /></svg>