<?xml version="1.0" standalone="no"?><!DOCTYPE svg PUBLIC "-//W3C//DTD SVG 1.1//EN" "http://www.w3.org/Graphics/SVG/1.1/DTD/svg11.dtd"><svg class="icon" width="64px" height="64.00px" viewBox="0 0 1024 1024" version="1.1" xmlns="http://www.w3.org/2000/svg"><path fill="#ffffff" d="M875.2 834H149.8c-46.5 0-85.8-38.7-85.8-85.2V275.2c0-46.5 39.4-85.2 85.8-85.2h725.3c46.5 0 83.9 38.7 83.9 85.2v473.6c0 46.5-37.4 85.2-83.8 85.2zM149.8 250c-13.5 0-25.8 11.8-25.8 25.2v473.6c0 13.5 12.4 25.3 25.8 25.3h725.3c13.5 0 24.9-11.9 24.9-25.3V275.2c0-13.5-11.5-25.2-24.9-25.2H149.8zM523.2 714H203.3c-7.4 0-14.5-3.2-19.7-8.5-5.2-5.3-8-12.6-7.8-20 1.1-42.1 15-81.7 40.2-114.8 14.2-18.7 31.7-34.5 51.2-46.7-20.8-23.2-33-53.5-33-85.4 0-70.7 57.9-128.4 129.1-128.4 71.2 0 129.1 57.5 129.1 128.4 0 32-12.2 62.3-33 85.4 19.6 12.2 37.1 28 51.2 46.6 25.1 33.1 39 72.7 40.2 114.8 0.2 7.4-2.6 14.7-7.8 20-5.2 5.4-12.3 8.6-19.8 8.6z m-288.9-56h258c-4.5-18-13.1-38.1-25.5-54.4-17.5-23-41.8-39.7-68.4-47.4-11-3.2-18.9-12.8-19.8-24.2-0.9-11.4 5.5-22.1 15.9-26.9 26.1-12.1 43-38.1 43-66.4 0-40.5-33.3-73.4-74.1-73.4s-74.1 33-74.1 73.4c0 28.3 16.9 54.3 43 66.4 10.4 4.8 16.7 15.6 15.9 27-0.8 11.4-8.7 21.1-19.8 24.3-26.7 7.8-51 24.3-68.4 47.2-12.7 16.3-21.3 36.4-25.7 54.4z m571.1-258H607.6c-16.6 0-30-13.4-30-30s13.4-30 30-30h197.7c16.6 0 30 13.4 30 30s-13.4 30-29.9 30zM784 564c0 16.6-13.4 30-30 30H608c-16.6 0-30-13.4-30-30s13.4-30 30-30h146c16.6 0 30 13.4 30 30z" /></svg>