<?xml version="1.0" standalone="no"?><!DOCTYPE svg PUBLIC "-//W3C//DTD SVG 1.1//EN" "http://www.w3.org/Graphics/SVG/1.1/DTD/svg11.dtd"><svg class="icon" width="32px" height="32.00px" viewBox="0 0 1024 1024" version="1.1" xmlns="http://www.w3.org/2000/svg"><path fill="#E71B64" d="M512 981.333333C252.8 981.333333 42.666667 771.2 42.666667 512S252.8 42.666667 512 42.666667s469.333333 210.133333 469.333333 469.333333-210.133333 469.333333-469.333333 469.333333z m-23.253333-399.530666l-36.053334 120.149333a23.253333 23.253333 0 0 0 40.362667 21.333333l197.546667-243.157333a23.253333 23.253333 0 0 0-18.048-37.973333h-137.301334l36.053334-120.106667a23.253333 23.253333 0 0 0-40.362667-21.333333l-197.546667 243.157333a23.253333 23.253333 0 0 0 18.048 37.973333h137.301334z"  /></svg>