<?xml version="1.0" standalone="no"?><!DOCTYPE svg PUBLIC "-//W3C//DTD SVG 1.1//EN" "http://www.w3.org/Graphics/SVG/1.1/DTD/svg11.dtd"><svg class="icon" width="16px" height="15.06px" viewBox="0 0 1088 1024" version="1.1" xmlns="http://www.w3.org/2000/svg"><path fill="#ffffff" d="M552.608914 107.329829c-246.023314 0-446.171429 200.148114-446.171429 446.171429s200.148114 446.171429 446.171429 446.171429 446.171429-200.148114 446.171429-446.171429S798.632229 107.329829 552.608914 107.329829zM580.944457 954.6752l0-129.667657-56.685714 0 0 129.667657c-196.666514-13.765486-354.742857-169.442743-372.238629-365.070629l136.835657 0L288.855771 532.918857l-138.020571 0c10.283886-202.869029 171.578514-366.460343 373.423543-380.591543l0 145.188571 56.685714 0 0-145.188571C782.804114 166.458514 944.098743 330.049829 954.368 532.918857l-132.725029 0 0 56.685714 131.554743 0C935.701943 785.247086 777.610971 940.909714 580.944457 954.6752zM96.841143 114.336914c-74.722743 79.945143-98.494171 179.141486-18.563657 253.8496L348.847543 78.701714C268.9024 3.978971 171.549257 34.4064 96.841143 114.336914zM1060.425143 199.504457 934.677943 52.955429c-3.057371-3.554743-9.493943-3.072-14.365257 1.111771L826.514286 134.5536c-4.871314 4.183771-6.334171 10.459429-3.2768 14.0288l125.7472 146.563657c3.057371 3.569371 9.493943 3.072 14.365257-1.111771l93.7984-80.4864C1062.034286 209.364114 1063.482514 203.073829 1060.425143 199.504457zM700.489143 504.290743c-2.545371-9.728-8.850286-16.4864-14.101943-15.111314l-98.889143 25.877943c-9.245257-8.3968-21.416229-13.648457-34.889143-13.648457-0.175543 0-0.336457 0.043886-0.526629 0.043886l-94.0032-142.921143c-4.432457-6.743771-14.848-7.738514-23.259429-2.208914l-26.624 17.5104c-8.3968 5.514971-11.600457 15.477029-7.168 22.235429l99.986286 152.034743c-0.190171 1.813943-0.541257 3.554743-0.541257 5.412571 0 28.789029 23.332571 52.1216 52.1216 52.1216 17.5104 0 32.914286-8.704 42.364343-21.957486l108.704914-28.437943c5.237029-1.375086 7.431314-10.371657 4.871314-20.099657L700.489143 504.290743z" /></svg>